<?xml version="1.0" standalone="no"?>
<!DOCTYPE svg PUBLIC "-//W3C//DTD SVG 1.1//EN" "http://www.w3.org/Graphics/SVG/1.1/DTD/svg11.dtd" >
<svg xmlns="http://www.w3.org/2000/svg" xmlns:xlink="http://www.w3.org/1999/xlink" version="1.1">
<metadata></metadata>
<defs>
<font id="hindmedium" horiz-adv-x="1155" >
<font-face units-per-em="2048" ascent="1638" descent="-410" />
<missing-glyph horiz-adv-x="503" />
<glyph unicode="&#xfb01;" horiz-adv-x="1089" d="M61 883v155h166v80q0 163 88.5 255.5t249.5 92.5q167 0 314 -75v-174q-165 77 -295 77q-156 0 -156 -178v-78h535v-1038h-201v883h-334v-883h-201v883h-166z" />
<glyph unicode="&#xfb02;" horiz-adv-x="1093" d="M61 883v155h166v80q0 163 88.5 255.5t247.5 92.5q186 0 389 -108v-1358h-200v1266q-82 28 -158 28q-78 0 -122 -39.5t-44 -138.5v-78h219v-155h-219v-883h-201v883h-166z" />
<glyph horiz-adv-x="0" />
<glyph horiz-adv-x="682" />
<glyph horiz-adv-x="0" />
<glyph horiz-adv-x="0" />
<glyph unicode="&#xd;" horiz-adv-x="0" />
<glyph unicode=" "  horiz-adv-x="503" />
<glyph unicode="&#x09;" horiz-adv-x="503" />
<glyph unicode="&#xa0;" horiz-adv-x="503" />
<glyph unicode="!" horiz-adv-x="536" d="M127 123q0 59 40 100t99 41t100.5 -41.5t41.5 -99.5q0 -59 -41.5 -99t-100.5 -40q-60 0 -99.5 39.5t-39.5 99.5zM170 438v942h197v-942h-197z" />
<glyph unicode="&#x22;" horiz-adv-x="659" d="M88 895v500h174v-500h-174zM397 895v500h174v-500h-174z" />
<glyph unicode="#" horiz-adv-x="1480" d="M104 338v160h252l78 376h-231v164h266l72 342h180l-72 -342h340l72 342h176l-72 -342h213v-164h-248l-79 -376h231v-160h-264l-72 -338h-178l72 338h-340l-72 -338h-176l72 338h-220zM535 498h339l80 376h-340z" />
<glyph unicode="$" horiz-adv-x="1038" d="M96 1010q0 161 109 261t287 118v219h174v-224q124 -17 206 -59v-209q-61 39 -145.5 62.5t-165.5 23.5q-112 0 -175.5 -49.5t-63.5 -132.5q0 -27 8.5 -51t20 -42t35.5 -37.5t41.5 -31.5t53.5 -30t55.5 -27t61.5 -27q51 -22 85 -39.5t78.5 -44t73.5 -56t56 -67t40 -86 t13 -104.5q0 -165 -105 -266.5t-278 -120.5v-219h-172v219q-167 16 -285 84v219q77 -58 175.5 -89.5t199.5 -31.5q112 0 179 52.5t67 144.5q0 20 -5 38.5t-11.5 33.5t-20.5 30.5t-25 26.5t-32.5 24.5t-35.5 21.5t-42 21.5t-43 20t-48 20.5t-48 21q-55 25 -94.5 46.5t-85 56 t-73 72t-46.5 91.5t-19 117z" />
<glyph unicode="%" horiz-adv-x="1810" d="M98 1065q0 141 100.5 241.5t241.5 100.5q142 0 243 -100.5t101 -241.5q0 -143 -101 -243.5t-243 -100.5q-141 0 -241.5 101t-100.5 243zM268 1065q0 -72 50.5 -123t121.5 -51q72 0 123 51t51 123q0 71 -51 121.5t-123 50.5q-70 0 -121 -50.5t-51 -121.5zM434 -2l746 1388 h190l-747 -1388h-189zM1026 328q0 141 101 242.5t243 101.5q141 0 241.5 -101.5t100.5 -242.5q0 -142 -100.5 -242t-241.5 -100q-143 0 -243.5 100t-100.5 242zM1196 328q0 -72 51 -123t123 -51q71 0 121.5 51t50.5 123t-50.5 123t-121.5 51q-72 0 -123 -51t-51 -123z" />
<glyph unicode="&#x26;" horiz-adv-x="1464" d="M125 365q0 124 77.5 210.5t239.5 143.5q-86 89 -131 169.5t-45 170.5q0 162 110.5 258t289.5 96q185 0 296 -101t111 -263q0 -119 -73 -212.5t-242 -172.5l303 -291q47 84 53 194h189q-9 -178 -105 -323q235 -221 260 -244h-262l-121 113q-167 -129 -416 -129 q-241 0 -387.5 108t-146.5 273zM332 371q0 -95 91.5 -153t233.5 -58q162 0 283 80l-375 354l-2 2q-121 -45 -176 -97.5t-55 -127.5zM473 1059q0 -62 38.5 -124.5t125.5 -154.5q123 60 177 123t54 139q0 85 -53 140t-151 55q-83 0 -137 -46.5t-54 -131.5z" />
<glyph unicode="'" horiz-adv-x="350" d="M88 895v500h174v-500h-174z" />
<glyph unicode="(" horiz-adv-x="651" d="M127 535q0 255 83.5 489.5t233.5 423.5h218q-158 -206 -239 -447t-81 -477q0 -228 86 -471.5t250 -453.5h-219q-332 415 -332 936z" />
<glyph unicode=")" horiz-adv-x="651" d="M-27 -401q165 210 251.5 453.5t86.5 471.5q0 236 -81.5 477t-237.5 447h217q150 -189 232.5 -423t82.5 -490q0 -521 -329 -936h-222z" />
<glyph unicode="*" horiz-adv-x="894" d="M59 1038l50 156l190 -61q50 -17 84 -48q-18 49 -18 97v198h163v-198q0 -52 -16 -92q37 30 84 45l188 59l52 -156l-189 -61q-37 -12 -82 -12h-10q35 -21 68 -66l114 -162l-131 -96l-117 160q-26 37 -40 82q-7 -33 -41 -82l-119 -160l-133 96l118 160q28 40 68 66h-12 q-45 0 -82 12z" />
<glyph unicode="+" d="M109 604v182h370v383h187v-383h378v-182h-378v-381h-187v381h-370z" />
<glyph unicode="," horiz-adv-x="501" d="M-16 -254l196 479h248l-268 -479h-176z" />
<glyph unicode="-" horiz-adv-x="716" d="M109 461v172h499v-172h-499z" />
<glyph unicode="." horiz-adv-x="395" d="M59 123q0 58 40.5 97.5t99.5 39.5q57 0 97 -39.5t40 -97.5t-40 -98.5t-97 -40.5q-59 0 -99.5 40.5t-40.5 98.5z" />
<glyph unicode="/" horiz-adv-x="862" d="M-14 -209l743 1657h207l-743 -1657h-207z" />
<glyph unicode="0" horiz-adv-x="1116" d="M84 674q0 316 126 501t345 185q223 0 350 -184.5t127 -501.5q0 -206 -52.5 -359.5t-161.5 -242t-263 -88.5q-220 0 -345.5 188.5t-125.5 501.5zM289 674q0 -239 74 -371.5t192 -132.5q126 0 198 130.5t72 373.5t-74.5 371.5t-195.5 128.5q-114 0 -190 -129.5t-76 -370.5z " />
<glyph unicode="1" horiz-adv-x="696" d="M33 926v215l334 198h182v-1339h-199v1120z" />
<glyph unicode="2" horiz-adv-x="1015" d="M74 0v166q93 68 176 137.5t164.5 151t140.5 158.5t95 158.5t36 152.5q0 116 -67 178.5t-187 62.5q-77 0 -164 -34t-157 -89v199q66 51 161.5 82t188.5 31q188 0 311 -106t123 -300q0 -360 -545 -774h582v-174h-858z" />
<glyph unicode="3" horiz-adv-x="964" d="M74 57v197q152 -82 332 -82q121 0 189.5 60t68.5 155q0 97 -76.5 151t-227.5 54h-81v172h81q112 0 189.5 56.5t77.5 154.5t-63 147t-171 49q-68 0 -143 -24.5t-133 -61.5v195q52 31 128.5 52.5t153.5 21.5q206 0 321.5 -102t115.5 -255q0 -110 -55 -193.5t-160 -125.5 q116 -28 181.5 -108t65.5 -201q0 -167 -118.5 -274t-333.5 -107q-88 0 -182.5 18t-159.5 51z" />
<glyph unicode="4" horiz-adv-x="1118" d="M78 313v174l481 854h326v-854h188v-174h-188v-313h-201v313h-606zM281 487h403v732z" />
<glyph unicode="5" horiz-adv-x="1038" d="M106 55v195q59 -36 146 -58t170 -22q323 0 323 262q0 105 -73 163t-195 58q-157 0 -307 -71v759h694v-174h-495v-352q75 16 139 16q208 0 327 -109t119 -296q0 -201 -132 -320.5t-367 -119.5q-214 0 -349 69z" />
<glyph unicode="6" horiz-adv-x="1083" d="M96 608q0 219 75 392t219.5 273.5t334.5 100.5q100 0 195 -31v-194q-78 41 -187 41q-92 0 -168 -36t-127.5 -100t-84.5 -144.5t-46 -176.5q61 60 144 94.5t172 34.5q182 0 287.5 -116t105.5 -310q0 -204 -119 -333.5t-319 -129.5q-157 0 -267 83t-162.5 224t-52.5 328z M301 553q9 -199 86 -298t193 -99q106 0 167.5 76.5t61.5 201.5q0 116 -61.5 184t-163.5 68q-160 0 -283 -133z" />
<glyph unicode="7" horiz-adv-x="940" d="M29 1165v174h882v-174l-544 -1165h-215l546 1165h-669z" />
<glyph unicode="8" horiz-adv-x="1101" d="M94 346q0 119 60.5 202t167.5 124q-96 41 -150.5 119t-54.5 182q0 92 35.5 166t95 121.5t136 72.5t161.5 25q87 0 164 -23.5t138 -69.5t96.5 -122t35.5 -172q0 -101 -53 -177t-148 -120q108 -37 169 -116t61 -202q0 -169 -131.5 -271.5t-331.5 -102.5q-197 0 -324 99 t-127 265zM299 354q0 -85 63 -142.5t185 -57.5q125 0 191.5 61.5t66.5 151.5t-65.5 151.5t-192.5 61.5q-84 -1 -141.5 -34.5t-82 -82.5t-24.5 -109zM322 975q0 -105 65 -159t166 -54q96 0 158.5 56.5t62.5 158.5q0 91 -56 150t-173 59q-105 0 -164 -61.5t-59 -149.5z" />
<glyph unicode="9" horiz-adv-x="1048" d="M63 907q0 193 117.5 321t317.5 128q117 0 207.5 -46.5t147 -129.5t85.5 -191.5t29 -238.5q0 -365 -154 -565.5t-444 -200.5q-133 0 -236 39v194q102 -47 221 -47q182 0 280.5 106t125.5 312q-51 -59 -121 -86t-172 -27q-81 0 -154.5 30.5t-129 85t-88 136.5t-32.5 180z M272 911q0 -123 66.5 -193.5t177.5 -70.5q156 0 252 121q-3 187 -68.5 296.5t-193.5 109.5q-106 0 -170 -71t-64 -192z" />
<glyph unicode=":" horiz-adv-x="512" d="M119 135q0 57 39.5 97t97.5 40q57 0 97 -40t40 -97q0 -58 -40 -97.5t-97 -39.5q-58 0 -97.5 39t-39.5 98zM119 801q0 57 39.5 97t97.5 40q57 0 97 -40t40 -97q0 -58 -40 -97.5t-97 -39.5q-58 0 -97.5 39t-39.5 98z" />
<glyph unicode=";" horiz-adv-x="501" d="M-16 -254l196 479h248l-268 -479h-176zM145 799q0 58 39.5 98.5t96.5 40.5q59 0 99 -40t40 -99q0 -57 -40 -96t-99 -39q-57 0 -96.5 39t-39.5 96z" />
<glyph unicode="&#x3c;" horiz-adv-x="1116" d="M109 600v195l909 379v-205q-595 -220 -701 -271q48 -24 223.5 -92t326.5 -124l151 -56v-205z" />
<glyph unicode="=" d="M109 395v174h935v-174h-935zM109 825v172h935v-172h-935z" />
<glyph unicode="&#x3e;" horiz-adv-x="1116" d="M98 221v205q590 219 701 272q-48 23 -223.5 90.5t-326.5 123.5l-151 57v205l908 -379v-195z" />
<glyph unicode="?" horiz-adv-x="929" d="M104 1122v199q134 76 322 76q195 0 312.5 -99.5t117.5 -275.5q0 -91 -36 -164t-94.5 -116.5t-122.5 -67.5t-130 -29l-2 -207h-190l-2 330q370 0 370 240q0 96 -61 154.5t-180 58.5q-153 0 -304 -99zM233 123q0 59 41 100t99 41q60 0 100.5 -41t40.5 -100 q0 -60 -40.5 -99.5t-100.5 -39.5q-59 0 -99.5 39.5t-40.5 99.5z" />
<glyph unicode="@" horiz-adv-x="1896" d="M111 403q0 150 46.5 287.5t131 245.5t197 188t250.5 123t286 43q159 0 301 -52t250 -145.5t171.5 -235t63.5 -310.5q0 -120 -32.5 -220t-86.5 -163.5t-121 -98t-138 -34.5q-111 0 -174.5 54t-88.5 136q-46 -92 -125.5 -143t-179.5 -51q-155 0 -245.5 113t-90.5 280 q0 193 117.5 319.5t286.5 126.5q166 0 244 -137q1 19 4 62t4 67h164l-21 -211q-14 -183 -14 -246q0 -107 30 -159t97 -52q85 0 140.5 95.5t55.5 249.5q0 143 -48 256.5t-133 185t-196 108.5t-241 37q-197 0 -362 -95.5t-261 -261.5t-96 -364q0 -146 48 -263t130 -190 t186.5 -112t221.5 -39q209 0 377 90l-9 -186q-155 -74 -370 -74q-179 0 -326 60.5t-243 165.5t-148.5 246.5t-52.5 303.5zM713 410q0 -103 54.5 -165.5t137.5 -62.5q79 0 147.5 56.5t98.5 156.5q3 49 6 105q-31 211 -209 211q-101 0 -168 -85.5t-67 -215.5z" />
<glyph unicode="A" horiz-adv-x="1351" d="M63 0l478 1380h276l471 -1380h-225l-109 338h-557l-110 -338h-224zM455 514h442l-23 70q-78 241 -127 400.5t-59 197.5l-10 39q-23 -95 -201 -637z" />
<glyph unicode="B" horiz-adv-x="1189" d="M150 0v1380h452q217 0 342 -101t125 -267q0 -116 -64 -201.5t-165 -110.5q113 -21 189.5 -104t76.5 -225q0 -165 -112.5 -268t-313.5 -103h-530zM360 174h271q126 0 193 55t67 160q0 104 -71.5 162.5t-209.5 58.5h-250v-436zM360 782h191q154 0 228.5 63t74.5 163 q0 89 -67 143.5t-201 54.5h-226v-424z" />
<glyph unicode="C" horiz-adv-x="1239" d="M94 692q0 207 91 369t250 250t358 88q220 0 354 -76v-207q-90 49 -163 68.5t-185 19.5q-134 0 -243.5 -61.5t-175 -179.5t-65.5 -271q0 -236 137.5 -375t362.5 -139q92 0 181.5 27.5t152.5 75.5v-213q-128 -84 -352 -84q-152 0 -281 49.5t-222.5 139.5t-146.5 224 t-53 295z" />
<glyph unicode="D" horiz-adv-x="1366" d="M150 0v1380h430q202 0 362 -86.5t249 -240.5t89 -348q0 -149 -46.5 -277.5t-133.5 -224t-220 -149.5t-296 -54h-434zM365 178h217q120 0 213.5 41t151 113.5t87 167t29.5 205.5q0 139 -58 250.5t-170 178t-260 66.5h-210v-1022z" />
<glyph unicode="E" horiz-adv-x="1052" d="M150 0v1380h786v-176h-576v-426h510v-176h-510v-426h586v-176h-796z" />
<glyph unicode="F" horiz-adv-x="1011" d="M150 0v1380h782v-176h-572v-452h502v-177h-502v-575h-210z" />
<glyph unicode="G" horiz-adv-x="1394" d="M94 692q0 209 92 372.5t252.5 252t362.5 88.5q239 0 401 -92v-217q-174 110 -393 110q-221 0 -357.5 -141t-136.5 -373q0 -238 134.5 -375t369.5 -137q124 0 234 45v381h-281v182h488v-661h-3l3 -14q-78 -57 -194 -93t-253 -36q-212 0 -374 83.5t-253.5 245t-91.5 379.5z " />
<glyph unicode="H" horiz-adv-x="1343" d="M150 0v1380h210v-594h621v594h211v-1380h-211v604h-621v-604h-210z" />
<glyph unicode="I" horiz-adv-x="540" d="M166 0v1380h209v-1380h-209z" />
<glyph unicode="J" horiz-adv-x="753" d="M61 43v195q84 -52 168 -52q168 0 168 179v1015h211v-1007q0 -191 -93 -282t-251 -91q-127 0 -203 43z" />
<glyph unicode="K" horiz-adv-x="1226" d="M150 0v1380h210v-1380h-210zM387 682l502 698h256l-506 -696l537 -684h-267z" />
<glyph unicode="L" horiz-adv-x="983" d="M150 0v1380h210v-1194h566v-186h-776z" />
<glyph unicode="M" horiz-adv-x="1777" d="M131 0l107 1380h249l185 -503q48 -129 97.5 -273.5t74.5 -224.5l26 -80q94 280 207 578l193 503h250l127 -1380h-209l-49 541q-12 130 -23 268.5t-16 211.5l-4 73q-92 -261 -201 -553l-193 -514h-166l-186 514q-50 142 -96.5 278t-67.5 201l-22 65q0 -75 -33 -544 l-41 -541h-209z" />
<glyph unicode="N" horiz-adv-x="1392" d="M150 0v1380h249l340 -577q95 -162 171 -299.5t105 -193.5l29 -56q-12 188 -12 547v579h211v-1380h-250l-342 575q-93 156 -169.5 294t-107.5 199l-30 60q16 -205 16 -550v-578h-210z" />
<glyph unicode="O" horiz-adv-x="1456" d="M94 696q0 322 172 516.5t461 194.5q295 0 465 -193.5t170 -517.5t-171 -518t-462 -194q-288 0 -461.5 194.5t-173.5 517.5zM315 696q0 -238 112.5 -377t301.5 -139q194 0 303 138t109 378q0 239 -109.5 376.5t-304.5 137.5q-192 0 -302 -138t-110 -376z" />
<glyph unicode="P" horiz-adv-x="1126" d="M150 0v1380h395q237 0 376.5 -125.5t139.5 -322.5t-140.5 -320t-363.5 -123h-197v-489h-210zM360 664h181q150 0 228.5 73.5t78.5 194.5q0 128 -79.5 201t-231.5 73h-177v-542z" />
<glyph unicode="Q" horiz-adv-x="1472" d="M94 696q0 322 172 516.5t461 194.5q295 0 465 -193.5t170 -517.5q0 -232 -90 -401.5t-254 -249.5l414 -248l-234 -92l-403 281q-23 -2 -66 -2q-288 0 -461.5 194.5t-173.5 517.5zM315 696q0 -238 112.5 -377t301.5 -139q194 0 303 138t109 378q0 239 -109.5 376.5 t-304.5 137.5q-192 0 -302 -138t-110 -376z" />
<glyph unicode="R" horiz-adv-x="1163" d="M150 0v1380h385q237 0 366 -115.5t129 -314.5q-3 -146 -74.5 -247t-197.5 -146l360 -557h-252l-323 524h-183v-524h-210zM360 700h191q131 0 198.5 69t67.5 183q0 123 -70 187.5t-206 64.5h-181v-504z" />
<glyph unicode="S" horiz-adv-x="1067" d="M119 1010q0 176 128 278.5t331 102.5q185 0 317 -66v-209q-62 39 -146 62.5t-165 23.5q-113 0 -177.5 -49.5t-64.5 -132.5q0 -35 14.5 -65.5t35 -52.5t59 -45.5t68 -37.5t81.5 -37q48 -21 76 -34t72 -37t70.5 -44.5t58 -52t49 -65t29.5 -78t12 -94.5q0 -183 -129 -287 t-334 -104q-228 0 -377 88v219q78 -58 175.5 -89.5t199.5 -31.5q112 0 177.5 52t65.5 145q0 35 -14.5 65t-34 50.5t-58.5 44t-68 37.5t-83 38q-148 68 -208 111q-158 116 -160 295z" />
<glyph unicode="T" horiz-adv-x="1024" d="M45 1204v176h934v-176h-363v-1204h-210v1204h-361z" />
<glyph unicode="U" horiz-adv-x="1335" d="M145 512v868h211v-866q0 -177 85 -257.5t225 -80.5q313 0 313 348v856h211v-852q0 -268 -139.5 -407t-384.5 -139q-242 0 -381.5 136.5t-139.5 393.5z" />
<glyph unicode="V" horiz-adv-x="1316" d="M63 1380h226l176 -549q56 -176 103.5 -337t67.5 -234l19 -72q66 247 197 643l178 549h225l-477 -1380h-250z" />
<glyph unicode="W" horiz-adv-x="1939" d="M63 1380h220l129 -510q29 -116 67 -277.5t61 -265.5l23 -104q92 345 180 647l142 490h186l146 -492l186 -649q75 374 141 649l121 512h213l-338 -1380h-252l-131 436q-56 188 -100.5 342t-60.5 214l-17 61q-47 -196 -172 -617l-127 -436h-254z" />
<glyph unicode="X" horiz-adv-x="1286" d="M72 0l442 698l-418 682h244l293 -495q18 33 147.5 253.5t141.5 241.5h252l-418 -684l456 -696h-247l-328 518q-19 -36 -158.5 -263.5t-154.5 -254.5h-252z" />
<glyph unicode="Y" horiz-adv-x="1245" d="M47 1380h242l98 -202q94 -191 151.5 -314t68.5 -150l11 -28q19 63 238 492l100 202h242l-473 -866v-514h-211v514z" />
<glyph unicode="Z" horiz-adv-x="1196" d="M111 0v166l696 1040h-686v174h936v-161l-699 -1045h727v-174h-974z" />
<glyph unicode="[" horiz-adv-x="665" d="M150 -381v1829h503v-178h-307v-1473h307v-178h-503z" />
<glyph unicode="\" horiz-adv-x="860" d="M-76 1448h209l744 -1659h-207z" />
<glyph unicode="]" horiz-adv-x="665" d="M14 -203h308v1473h-308v178h502v-1829h-502v178z" />
<glyph unicode="^" horiz-adv-x="962" d="M84 680l297 537h205l291 -537h-195l-199 389l-202 -389h-197z" />
<glyph unicode="_" horiz-adv-x="1140" d="M53 -72h1034v-172h-1034v172z" />
<glyph unicode="`" horiz-adv-x="909" d="M248 1634h223l195 -331h-172z" />
<glyph unicode="a" horiz-adv-x="1021" d="M88 293q0 149 112.5 232t315.5 83h172v60q0 105 -51 160t-170 55q-79 0 -159.5 -25.5t-141.5 -66.5v194q53 30 140 50t179 20q209 0 308.5 -99.5t99.5 -296.5v-659h-199v123q-33 -53 -101 -92t-179 -39q-148 0 -237 85.5t-89 215.5zM301 303q0 -71 44.5 -112t131.5 -41 q98 0 154.5 54t56.5 142v117h-156q-115 0 -173 -45t-58 -115z" />
<glyph unicode="b" horiz-adv-x="1191" d="M145 0v1448h203v-567q53 82 134 127t180 45q196 0 321 -147.5t125 -391.5q0 -105 -29.5 -199.5t-84 -168t-140 -117t-190.5 -43.5q-206 0 -316 172v-158h-203zM348 526q0 -95 23.5 -167.5t64.5 -114t90 -62t105 -20.5q116 0 193 97t77 251q0 177 -78 272t-198 95 q-37 0 -74 -11t-74 -37.5t-65.5 -65.5t-46 -100.5t-17.5 -136.5z" />
<glyph unicode="c" horiz-adv-x="964" d="M84 516q0 107 36.5 204t104 172.5t171.5 120t231 44.5q134 0 247 -58v-184q-49 31 -111 47.5t-116 16.5q-162 0 -259 -102.5t-97 -262.5q3 -158 95.5 -259t258.5 -101q124 0 229 67v-180q-46 -29 -116.5 -45t-139.5 -16q-162 0 -285 73t-186 193.5t-63 269.5z" />
<glyph unicode="d" horiz-adv-x="1187" d="M84 514q0 244 125 391.5t321 147.5q99 0 180 -45t134 -127v567h203v-1448h-203v158q-110 -172 -318 -172q-104 0 -189.5 43.5t-139.5 117t-83.5 168t-29.5 199.5zM291 510q0 -155 76.5 -251.5t193.5 -96.5q56 0 105 20.5t90 62t64.5 114t23.5 167.5q0 75 -17.5 136.5 t-46 100.5t-65.5 65.5t-74 37.5t-74 11q-120 0 -198 -95t-78 -272z" />
<glyph unicode="e" horiz-adv-x="1075" d="M84 516q0 249 131 392t334 143q199 0 315.5 -124t116.5 -358q0 -63 -12 -133h-682q21 -134 115 -206t237 -72q76 0 150 21t126 57v-181q-54 -31 -140 -48t-163 -17q-242 0 -385 145.5t-143 380.5zM285 594h501v37q-3 117 -63 185.5t-170 68.5q-103 0 -176.5 -75 t-91.5 -216z" />
<glyph unicode="f" horiz-adv-x="684" d="M61 883v155h166v80q0 162 87.5 255t244.5 93q58 0 117 -16v-176q-47 20 -98 20q-67 0 -108.5 -43t-41.5 -135v-78h219v-155h-219v-883h-201v883h-166z" />
<glyph unicode="g" horiz-adv-x="1144" d="M88 526q0 229 117 378t309 149q206 0 301 -176v161h201v-950q0 -123 -38.5 -217.5t-106 -151.5t-153.5 -85.5t-188 -28.5q-200 0 -337 67v203q133 -86 317 -86q305 0 305 301v107q-100 -168 -301 -168q-83 0 -158.5 31.5t-135.5 91t-96 156.5t-36 218zM299 530 q0 -161 74.5 -245t177.5 -84q107 0 185.5 82.5t78.5 232.5q0 183 -75 272t-181 89q-121 0 -190.5 -95.5t-69.5 -251.5z" />
<glyph unicode="h" horiz-adv-x="1128" d="M141 0v1448h201v-588q88 193 322 193q152 0 243.5 -94t91.5 -263v-696h-200v655q0 106 -55 165t-142 59q-37 0 -72.5 -10.5t-69.5 -34.5t-60 -59.5t-42 -90t-16 -121.5v-563h-201z" />
<glyph unicode="i" horiz-adv-x="501" d="M125 1356q0 54 36 90.5t89 36.5t90 -36.5t37 -90.5q0 -52 -37 -88.5t-90 -36.5q-52 0 -88.5 36.5t-36.5 88.5zM150 0v1038h202v-1038h-202z" />
<glyph unicode="j" horiz-adv-x="495" d="M-90 -201q63 -32 131 -32q113 0 113 145v1126h200v-1130q0 -144 -77 -226.5t-218 -82.5q-66 0 -149 30v170zM127 1356q0 54 36 90.5t89 36.5t90 -36.5t37 -90.5q0 -52 -37 -88.5t-90 -36.5q-52 0 -88.5 36.5t-36.5 88.5z" />
<glyph unicode="k" horiz-adv-x="1024" d="M141 0v1434h201v-1434h-201zM350 543l391 495h236l-395 -495l407 -543h-239z" />
<glyph unicode="l" horiz-adv-x="501" d="M150 0v1448h202v-1448h-202z" />
<glyph unicode="m" horiz-adv-x="1699" d="M141 0v1038h201v-166q43 88 118.5 134.5t174.5 46.5q117 0 192.5 -52t106.5 -149q44 97 125 149t184 52q160 0 243 -94.5t83 -260.5v-698h-201v655q0 108 -45.5 166t-134.5 58q-41 0 -80.5 -18.5t-74 -54.5t-56 -99t-21.5 -144v-563h-200v655q0 108 -46 166t-137 58 q-40 0 -79.5 -18.5t-74 -54.5t-56 -99.5t-21.5 -143.5v-563h-201z" />
<glyph unicode="n" horiz-adv-x="1128" d="M141 0v1038h201v-178q44 94 127 143.5t197 49.5q154 0 243.5 -94t89.5 -257v-702h-200v655q0 109 -54 166.5t-145 57.5q-107 0 -182.5 -83.5t-75.5 -232.5v-563h-201z" />
<glyph unicode="o" d="M84 510q0 153 59 275.5t172 195t260 72.5q159 0 273 -72.5t168.5 -192t54.5 -270.5t-56.5 -271.5t-170.5 -192.5t-269 -72q-154 0 -267 71.5t-168.5 189.5t-55.5 267zM293 516q0 -154 76 -259t206 -105q139 0 212 102.5t73 259.5q0 77 -16 141.5t-49 116.5t-89.5 81.5 t-132.5 29.5q-133 0 -206.5 -106t-73.5 -261z" />
<glyph unicode="p" horiz-adv-x="1187" d="M141 -397v1435h201v-159q108 174 320 174q204 0 323 -148.5t119 -378.5q0 -236 -122.5 -388t-324.5 -152q-207 0 -315 172v-555h-201zM342 522q0 -94 25.5 -166t67.5 -113t89 -61t97 -20q122 0 199 94.5t77 267.5q0 162 -75.5 257.5t-192.5 95.5q-54 0 -102.5 -19 t-91 -58t-68 -111t-25.5 -167z" />
<glyph unicode="q" horiz-adv-x="1187" d="M84 526q0 151 51.5 269.5t153.5 188t239 69.5q205 0 316 -170v155h203v-1435h-203v557q-111 -174 -314 -174q-202 0 -324 152t-122 388zM291 524q0 -171 78.5 -266.5t197.5 -95.5q50 0 97 20t88.5 61t66.5 113t25 166q0 95 -25 167t-67 111t-90 58t-101 19 q-117 0 -193.5 -96.5t-76.5 -256.5z" />
<glyph unicode="r" horiz-adv-x="694" d="M141 0v1038h201v-182q76 193 272 193q24 0 64 -7v-196q-42 18 -96 18q-104 0 -172 -92t-68 -219v-553h-201z" />
<glyph unicode="s" horiz-adv-x="858" d="M113 756q0 136 102 214.5t256 78.5q170 0 262 -45v-183q-45 27 -115 43.5t-143 16.5q-72 0 -114 -33t-42 -86q0 -15 3 -28.5t12 -26t15.5 -21.5t23 -20t25 -17.5t31.5 -17.5t31.5 -15t36 -16t35.5 -16q57 -25 97.5 -49.5t80.5 -59.5t60.5 -82.5t20.5 -105.5 q0 -140 -98.5 -218.5t-266.5 -78.5q-89 0 -171.5 17.5t-135.5 43.5v191q144 -88 297 -88q81 0 124.5 32t43.5 86q0 27 -12.5 51t-28.5 40t-52 35.5t-59.5 30t-75.5 32.5q-51 21 -89.5 44t-76 58t-57.5 84t-20 109z" />
<glyph unicode="t" horiz-adv-x="765" d="M37 883v155h162v254h202v-254h273v-155h-273v-572q0 -149 144 -149q84 0 141 45v-180q-67 -37 -166 -37q-321 0 -321 325v568h-162z" />
<glyph unicode="u" horiz-adv-x="1128" d="M129 330v708h203v-659q0 -107 52.5 -163t143.5 -56q118 0 188 82t70 231v565h201v-1038h-201v178q-82 -190 -323 -190q-155 0 -244.5 91t-89.5 251z" />
<glyph unicode="v" horiz-adv-x="1052" d="M39 1038h211l141 -438q49 -152 82.5 -262.5t42.5 -145.5l8 -34q18 101 135 442l146 438h209l-377 -1038h-229z" />
<glyph unicode="w" horiz-adv-x="1630" d="M39 1038h213l96 -344q47 -165 79.5 -289.5t40.5 -166.5l9 -43q26 129 135 501l101 342h194l103 -342q50 -170 84.5 -296t43.5 -166l9 -41q24 121 139 503l103 342h202l-329 -1038h-230l-96 340q-44 155 -75 274.5t-41 161.5l-9 43q-29 -134 -125 -479l-94 -340h-227z" />
<glyph unicode="x" horiz-adv-x="1007" d="M45 0l354 528l-331 512h227l217 -366l223 366h226l-347 -514l347 -526h-228l-227 381l-240 -381h-221z" />
<glyph unicode="y" horiz-adv-x="1032" d="M14 1038h224l129 -338q64 -168 104.5 -277.5t48.5 -134.5l8 -26q19 62 148 438l117 338h213l-375 -1009q-81 -215 -195.5 -307.5t-261.5 -92.5q-51 0 -94 11v172q37 -9 70 -9q198 0 278 220z" />
<glyph unicode="z" horiz-adv-x="944" d="M88 0v154l504 716h-486v168h723v-143l-510 -725h537v-170h-768z" />
<glyph unicode="{" horiz-adv-x="712" d="M94 434v197q28 0 51 2q85 9 132 74t47 153q0 42 -18.5 134t-18.5 143q0 145 81 234t201 89q53 0 109 -18v-193q-36 19 -68 19q-57 0 -89 -39.5t-32 -100.5q0 -46 18.5 -144t18.5 -155q0 -117 -65.5 -198.5t-179.5 -98.5q114 -17 179.5 -99.5t65.5 -199.5 q0 -58 -18.5 -154.5t-18.5 -141.5q0 -62 32 -102t89 -40q32 0 68 19v-193q-56 -18 -109 -18q-120 0 -201 89t-81 234q0 52 18.5 143t18.5 134q0 89 -45 152.5t-134 76.5q-18 2 -51 2z" />
<glyph unicode="|" horiz-adv-x="497" d="M156 -397v1820h186v-1820h-186z" />
<glyph unicode="}" horiz-adv-x="712" d="M35 -186q32 -19 65 -19q57 0 90 40t33 102q0 45 -18.5 141.5t-18.5 154.5q0 117 66 199.5t178 99.5q-113 17 -178.5 98.5t-65.5 198.5q0 57 18.5 155t18.5 144q0 60 -33 100t-90 40q-33 0 -65 -19v193q55 18 106 18q121 0 202 -89t81 -234q0 -51 -18.5 -143t-18.5 -134 q0 -89 47 -153.5t133 -73.5q20 -2 51 -2v-197q-35 0 -51 -2q-89 -13 -134.5 -76.5t-45.5 -152.5q0 -43 18.5 -134t18.5 -143q0 -145 -81 -234t-202 -89q-51 0 -106 18v193z" />
<glyph unicode="~" horiz-adv-x="1259" d="M70 510q65 93 149.5 148t177.5 55q73 0 142.5 -21t113.5 -46.5t97.5 -46.5t99.5 -21q62 0 108 30.5t86 89.5l146 -108q-130 -197 -311 -197q-65 0 -132 21.5t-112.5 47t-101 47t-99.5 21.5q-67 0 -121.5 -32t-107.5 -103z" />
<glyph unicode="&#xa1;" horiz-adv-x="536" d="M127 920q0 60 39.5 99.5t99.5 39.5q59 0 100.5 -40t41.5 -99q0 -58 -42 -100t-100 -42q-59 0 -99 41.5t-40 100.5zM170 -338v942h197v-942h-197z" />
<glyph unicode="&#xa2;" horiz-adv-x="942" d="M84 516q2 198 119 345.5t323 180.5v222h172v-217q84 -10 162 -48v-180q-98 55 -209 55q-161 0 -259.5 -100.5t-100.5 -259.5q3 -156 98 -256t262 -100q112 0 209 57v-180q-68 -33 -162 -47v-215h-172v217q-203 32 -322.5 177.5t-119.5 348.5z" />
<glyph unicode="&#xa3;" horiz-adv-x="1079" d="M115 0v168q107 53 147.5 130.5t40.5 213.5q0 22 -4 72h-176v153h160q-15 111 -15 166q0 213 112 330t322 117q142 0 240 -56v-196q-98 61 -209 61q-250 0 -250 -256q0 -42 13 -166h360v-153h-344q0 -13 1 -37t1 -35q0 -136 -39 -213.5t-113 -124.5h642v-174h-889z" />
<glyph unicode="&#xa4;" horiz-adv-x="1128" d="M66 266l120 119q-71 103 -71 250q0 136 73 250l-122 123l124 120l123 -122q110 75 256 75q136 0 252 -69l119 116l123 -120l-119 -119q72 -114 72 -246q0 -138 -78 -254l125 -123l-123 -121l-127 123q-106 -71 -252 -71q-148 0 -252 67l-119 -119zM287 639 q0 -120 78 -200.5t200 -80.5t200.5 80t78.5 201q0 120 -78.5 200.5t-200.5 80.5t-200 -80.5t-78 -200.5z" />
<glyph unicode="&#xa5;" horiz-adv-x="1228" d="M53 1339h242l313 -614l322 614h239l-331 -598h239v-139h-317l-45 -82v-84h362v-139h-362v-297h-211v297h-361v139h361v84l-45 82h-316v139h238z" />
<glyph unicode="&#xa6;" horiz-adv-x="497" d="M156 -328v682h186v-682h-186zM156 752v682h186v-682h-186z" />
<glyph unicode="&#xa7;" horiz-adv-x="1099" d="M109 608q0 135 88 236q-74 77 -74 190q0 170 124.5 264.5t325.5 94.5q186 0 318 -66v-209q-64 38 -148 62t-163 24q-114 0 -176 -43.5t-62 -120.5q0 -30 11 -54t26.5 -40.5t48.5 -35.5t60 -31t78 -35t87 -41q62 -30 101.5 -51.5t87 -57t74.5 -72.5t46 -91t19 -119 q0 -144 -86 -240q78 -91 78 -209q0 -176 -126 -272.5t-333 -96.5q-226 0 -377 89v219q77 -58 175.5 -89.5t199.5 -31.5q117 0 181.5 46t64.5 134q0 76 -61.5 124t-239.5 126q-62 28 -105.5 51t-93 59.5t-79.5 75t-50 93t-20 118.5zM313 608q0 -36 14.5 -66.5t34.5 -52.5 t61 -46.5t74 -40t93 -42.5q92 -37 149 -69q39 51 39 123q0 43 -17.5 77.5t-53.5 62t-77.5 50.5t-101.5 52q-17 8 -26 12q-23 12 -71.5 34t-72.5 33q-45 -57 -45 -127z" />
<glyph unicode="&#xa8;" horiz-adv-x="909" d="M104 1473q0 53 35 87.5t90 34.5q53 0 88 -35t35 -87q0 -53 -35 -88t-88 -35q-55 0 -90 35t-35 88zM557 1473q0 52 35 87t88 35q54 0 89.5 -34.5t35.5 -87.5t-35.5 -88t-89.5 -35q-52 0 -87.5 35t-35.5 88z" />
<glyph unicode="&#xa9;" horiz-adv-x="1581" d="M84 690q0 190 95.5 353t258.5 258.5t353 95.5t353 -95.5t258 -258.5t95 -353q0 -143 -56.5 -273.5t-151 -226t-225.5 -152t-273 -56.5q-190 0 -353 95.5t-258.5 259t-95.5 353.5zM238 688q0 -152 73.5 -279t201 -200.5t280.5 -73.5q151 0 277.5 73.5t199.5 200.5t73 279 t-73 279.5t-199.5 201.5t-277.5 74q-153 0 -280.5 -74t-201 -201.5t-73.5 -279.5zM457 686q0 102 43.5 186.5t131 137.5t204.5 53q97 0 174 -43v-150q-68 45 -162 45q-96 0 -159.5 -62.5t-63.5 -166.5q2 -99 63.5 -163t157.5 -64q93 0 164 51v-152q-72 -43 -181 -43 q-165 0 -268.5 106.5t-103.5 264.5z" />
<glyph unicode="&#xaa;" horiz-adv-x="747" d="M8 1051q0 125 96 196.5t267 71.5h143v45q0 90 -43 136t-145 46q-65 0 -133.5 -21t-118.5 -55v162q45 26 118 43t152 17q177 0 259.5 -83t82.5 -249v-557h-168v108q-35 -51 -95 -83.5t-140 -32.5q-126 0 -200.5 70t-74.5 186zM184 1057q0 -58 39.5 -92.5t112.5 -34.5 q78 0 128 45.5t50 111.5v105h-117q-103 0 -158 -35t-55 -100z" />
<glyph unicode="&#xab;" horiz-adv-x="1048" d="M55 518l307 332h220l-301 -332l301 -332h-220zM455 518l309 332h217l-299 -332l299 -332h-217z" />
<glyph unicode="&#xac;" horiz-adv-x="1157" d="M63 676v172h1014v-535h-178v363h-836z" />
<glyph unicode="&#xad;" horiz-adv-x="716" d="M109 461v172h499v-172h-499z" />
<glyph unicode="&#xae;" horiz-adv-x="946" d="M20 1161q0 196 128 323.5t325 127.5q196 0 324.5 -127.5t128.5 -323.5t-128.5 -323t-324.5 -127q-197 0 -325 127t-128 323zM127 1161q0 -156 95 -252t253 -96q156 0 251 96t95 252t-95 253t-251 97q-157 0 -252.5 -97t-95.5 -253zM334 950v451h131q172 0 172 -144 q0 -89 -74 -127l115 -180h-115l-98 164h-35v-164h-96zM430 1192h49q30 0 45 18t15 47q0 64 -66 64h-43v-129z" />
<glyph unicode="&#xaf;" horiz-adv-x="909" d="M143 1395v139h623v-139h-623z" />
<glyph unicode="&#xb0;" horiz-adv-x="778" d="M61 1065q0 138 95 232t235 94q138 0 232 -92t94 -230q0 -139 -95.5 -232.5t-234.5 -93.5q-140 0 -233 91.5t-93 230.5zM215 1067q0 -74 51.5 -126t124.5 -52t122.5 52t49.5 126t-51.5 126t-124.5 52t-122.5 -52t-49.5 -126z" />
<glyph unicode="&#xb1;" d="M109 61v172h935v-172h-935zM109 674v174h370v328h187v-328h378v-174h-378v-328h-187v328h-370z" />
<glyph unicode="&#xb2;" horiz-adv-x="747" d="M88 803v117q168 124 278.5 252t110.5 235q0 68 -40 103.5t-107 35.5q-105 0 -215 -82v162q108 68 229 68q126 0 211.5 -72.5t85.5 -200.5q0 -121 -93.5 -247.5t-248.5 -237.5h371v-133h-582z" />
<glyph unicode="&#xb3;" horiz-adv-x="681" d="M72 846v143q108 -57 227 -57q71 0 111.5 33.5t40.5 89.5q0 59 -48 93t-145 34h-43v133h43q73 0 120.5 32t47.5 91q0 58 -35.5 87t-99.5 29q-97 0 -193 -67v151q89 56 201 56q137 0 213 -68.5t76 -171.5q0 -81 -43 -133t-119 -70q77 -8 130.5 -65t53.5 -146 q0 -109 -78 -177t-217 -68q-60 0 -127.5 13.5t-115.5 37.5z" />
<glyph unicode="&#xb4;" horiz-adv-x="909" d="M248 1303l194 331h224l-246 -331h-172z" />
<glyph unicode="&#xb5;" horiz-adv-x="1140" d="M141 -367v1405h201v-659q0 -103 67 -161t162 -58q108 0 168 81t60 232v565h200v-1038h-200v147q-73 -159 -256 -159q-118 0 -201 59v-414h-201z" />
<glyph unicode="&#xb6;" horiz-adv-x="1144" d="M43 1030q0 67 25 128t73.5 111.5t129.5 80.5t184 30h153v-1683h-168v987q-96 0 -173 28t-125 76t-73.5 110t-25.5 132zM829 -303l2 1683h168v-1683h-170z" />
<glyph unicode="&#xb7;" horiz-adv-x="495" d="M111 614q0 58 40 98t99 40q57 0 97 -40t40 -98t-40 -98.5t-97 -40.5q-58 0 -98.5 40.5t-40.5 98.5z" />
<glyph unicode="&#xb8;" horiz-adv-x="909" d="M291 -387q83 4 125.5 40.5t42.5 100.5q0 66 -51 142h172q36 -50 36 -148q0 -115 -83.5 -193t-241.5 -81v139z" />
<glyph unicode="&#xb9;" horiz-adv-x="528" d="M20 1389v153l250 144h127v-883h-153v708z" />
<glyph unicode="&#xba;" horiz-adv-x="808" d="M-2 1237q0 198 110.5 328.5t294.5 130.5q99 0 178 -35t128.5 -97t75.5 -143t26 -176q0 -199 -108 -326.5t-300 -127.5q-191 0 -298 126t-107 320zM174 1241q0 -130 61.5 -219.5t167.5 -89.5q113 0 171.5 87.5t58.5 221.5q0 65 -12 119t-38 98.5t-72.5 70t-109.5 25.5 q-73 0 -125.5 -44.5t-77 -114t-24.5 -154.5z" />
<glyph unicode="&#xbb;" horiz-adv-x="1052" d="M68 186l299 332l-299 332h217l309 -332l-309 -332h-217zM469 186l299 332l-299 332h217l307 -332l-307 -332h-217z" />
<glyph unicode="&#xbc;" horiz-adv-x="1701" d="M100 1161v154l250 141h127v-883h-153v709zM283 0l909 1458h168l-909 -1458h-168zM961 195v124l317 560h233v-560h121v-124h-121v-195h-149v195h-401zM1114 319h248v445z" />
<glyph unicode="&#xbd;" horiz-adv-x="1705" d="M100 1161v154l250 141h127v-883h-153v709zM283 0l909 1458h168l-909 -1458h-168zM1057 0v117q168 124 278.5 252t110.5 235q0 68 -40.5 103.5t-107.5 35.5q-106 0 -215 -81v161q108 68 230 68q126 0 211.5 -72.5t85.5 -200.5q0 -121 -93.5 -247.5t-248.5 -237.5h370v-133 h-581z" />
<glyph unicode="&#xbe;" horiz-adv-x="1794" d="M119 616v144q107 -58 227 -58q70 0 111 33.5t41 89.5q0 59 -48 93t-145 34h-45v131h45q72 0 120 33t48 92q0 58 -36 87.5t-99 29.5q-44 0 -97 -18.5t-96 -49.5v152q87 55 199 55q139 0 215 -68t76 -173q0 -80 -43.5 -132.5t-118.5 -70.5q75 -6 129.5 -64t54.5 -145 q0 -110 -78.5 -178t-216.5 -68q-60 0 -127.5 13.5t-115.5 37.5zM395 0l910 1458h170l-912 -1458h-168zM1073 195v124l318 560h233v-560h121v-124h-121v-195h-149v195h-402zM1229 319h246v445z" />
<glyph unicode="&#xbf;" horiz-adv-x="929" d="M104 20q0 74 24 136.5t63 104.5t90.5 73t103 46t102.5 19l2 207h191l2 -332q-371 0 -371 -237q0 -96 60.5 -154.5t181.5 -58.5q156 0 303 96v-199q-139 -75 -324 -75q-194 0 -311 99t-117 275zM446 920q0 60 41 99.5t101 39.5q59 0 99 -39.5t40 -99.5q0 -59 -40.5 -99.5 t-98.5 -40.5q-60 0 -101 40.5t-41 99.5z" />
<glyph unicode="&#xc0;" horiz-adv-x="1351" d="M63 0l478 1380h276l471 -1380h-225l-109 338h-557l-110 -338h-224zM338 1817h223l195 -332h-172zM455 514h442l-23 70q-78 241 -127 400.5t-59 197.5l-10 39q-23 -95 -201 -637z" />
<glyph unicode="&#xc1;" horiz-adv-x="1351" d="M63 0l478 1380h276l471 -1380h-225l-109 338h-557l-110 -338h-224zM455 514h442l-23 70q-78 241 -127 400.5t-59 197.5l-10 39q-23 -95 -201 -637zM610 1485l195 332h223l-246 -332h-172z" />
<glyph unicode="&#xc2;" horiz-adv-x="1351" d="M63 0l478 1380h276l471 -1380h-225l-109 338h-557l-110 -338h-224zM313 1485l277 332h184l277 -332h-199l-172 209l-168 -209h-199zM455 514h442l-23 70q-78 241 -127 400.5t-59 197.5l-10 39q-23 -95 -201 -637z" />
<glyph unicode="&#xc3;" horiz-adv-x="1351" d="M63 0l478 1380h276l471 -1380h-225l-109 338h-557l-110 -338h-224zM317 1622q30 64 88 108t127 44q51 0 102.5 -21t95.5 -42t79 -21q76 0 119 88l114 -86q-34 -72 -92.5 -112t-130.5 -40q-46 0 -95 21t-91 42t-72 21q-48 0 -78.5 -22t-64.5 -72zM455 514h442l-23 70 q-78 241 -127 400.5t-59 197.5l-10 39q-23 -95 -201 -637z" />
<glyph unicode="&#xc4;" horiz-adv-x="1351" d="M63 0l478 1380h276l471 -1380h-225l-109 338h-557l-110 -338h-224zM336 1653q0 53 35 88t90 35q53 0 88 -35t35 -88t-35 -88t-88 -35q-55 0 -90 35t-35 88zM455 514h442l-23 70q-78 241 -127 400.5t-59 197.5l-10 39q-23 -95 -201 -637zM788 1653q0 53 35 88t88 35 q54 0 89.5 -35t35.5 -88t-35.5 -88t-89.5 -35q-53 0 -88 35t-35 88z" />
<glyph unicode="&#xc5;" horiz-adv-x="1351" d="M63 0l478 1380h276l471 -1380h-225l-109 338h-557l-110 -338h-224zM449 1698q0 98 68 167.5t165 69.5q98 0 168 -69.5t70 -167.5q0 -97 -70 -165.5t-168 -68.5q-97 0 -165 68.5t-68 165.5zM455 514h442l-23 70q-78 241 -127 400.5t-59 197.5l-10 39q-23 -95 -201 -637z M573 1702q0 -45 32 -79t77 -34q46 0 78.5 34t32.5 79t-32 77.5t-79 32.5q-45 0 -77 -32.5t-32 -77.5z" />
<glyph unicode="&#xc6;" horiz-adv-x="1837" d="M39 0l749 1380h932v-176h-575v-426h510v-176h-510v-426h586v-176h-791v338h-494l-186 -338h-221zM545 514h395v731q-123 -248 -356 -661z" />
<glyph unicode="&#xc7;" horiz-adv-x="1239" d="M94 692q0 207 91 369t250 250t358 88q220 0 354 -76v-207q-90 49 -163 68.5t-185 19.5q-134 0 -243.5 -61.5t-175 -179.5t-65.5 -271q0 -236 137.5 -375t362.5 -139q92 0 181.5 27.5t152.5 75.5v-213q-128 -84 -352 -84q-152 0 -281 49.5t-222.5 139.5t-146.5 224 t-53 295zM555 -387q83 4 125.5 40.5t42.5 100.5q0 66 -51 142h172q37 -52 37 -148q0 -115 -84 -193t-242 -81v139z" />
<glyph unicode="&#xc8;" horiz-adv-x="1052" d="M150 0v1380h786v-176h-576v-426h510v-176h-510v-426h586v-176h-796zM252 1817h223l195 -332h-172z" />
<glyph unicode="&#xc9;" horiz-adv-x="1052" d="M150 0v1380h786v-176h-576v-426h510v-176h-510v-426h586v-176h-796zM487 1485l195 332h223l-246 -332h-172z" />
<glyph unicode="&#xca;" horiz-adv-x="1052" d="M150 0v1380h786v-176h-576v-426h510v-176h-510v-426h586v-176h-796zM190 1485l277 332h184l277 -332h-199l-172 209l-168 -209h-199z" />
<glyph unicode="&#xcb;" horiz-adv-x="1052" d="M150 0v1380h786v-176h-576v-426h510v-176h-510v-426h586v-176h-796zM201 1651q0 53 35 88t90 35q52 0 87.5 -35t35.5 -88t-35.5 -88t-87.5 -35q-55 0 -90 35t-35 88zM653 1651q0 53 35.5 88t87.5 35q54 0 89.5 -35t35.5 -88t-35.5 -88t-89.5 -35q-52 0 -87.5 35t-35.5 88 z" />
<glyph unicode="&#xcc;" horiz-adv-x="540" d="M-72 1817h224l194 -332h-172zM166 0v1380h209v-1380h-209z" />
<glyph unicode="&#xcd;" horiz-adv-x="540" d="M166 0v1380h209v-1380h-209zM193 1485l194 332h223l-245 -332h-172z" />
<glyph unicode="&#xce;" horiz-adv-x="540" d="M-96 1485l276 332h185l276 -332h-199l-172 209l-168 -209h-198zM166 0v1380h209v-1380h-209z" />
<glyph unicode="&#xcf;" horiz-adv-x="540" d="M-74 1653q0 53 35 88t90 35q53 0 88 -35t35 -88t-35 -88t-88 -35q-55 0 -90 35t-35 88zM166 0v1380h209v-1380h-209zM379 1653q0 53 35.5 88t87.5 35q54 0 89.5 -35t35.5 -88t-35.5 -88t-89.5 -35q-52 0 -87.5 35t-35.5 88z" />
<glyph unicode="&#xd0;" horiz-adv-x="1507" d="M127 602v172h164v606h428q203 0 363 -86.5t248.5 -240.5t88.5 -348q0 -149 -46.5 -277.5t-133.5 -224t-220 -149.5t-296 -54h-432v602h-164zM504 178h217q121 0 215 41t151.5 113.5t87 167t29.5 205.5q0 139 -58 250.5t-170.5 178t-260.5 66.5h-211v-426h336v-172h-336 v-424z" />
<glyph unicode="&#xd1;" horiz-adv-x="1392" d="M150 0v1380h249l340 -577q95 -162 171 -299.5t105 -193.5l29 -56q-12 188 -12 547v579h211v-1380h-250l-342 575q-93 156 -169.5 294t-107.5 199l-30 60q16 -205 16 -550v-578h-210zM350 1622q30 64 88 108t127 44q51 0 102.5 -21t95.5 -42t79 -21q76 0 119 88l114 -86 q-34 -72 -92.5 -112t-130.5 -40q-46 0 -95 21t-91 42t-72 21q-48 0 -78.5 -22t-64.5 -72z" />
<glyph unicode="&#xd2;" horiz-adv-x="1456" d="M94 696q0 322 172 516.5t461 194.5q295 0 465 -193.5t170 -517.5t-171 -518t-462 -194q-288 0 -461.5 194.5t-173.5 517.5zM315 696q0 -238 112.5 -377t301.5 -139q194 0 303 138t109 378q0 239 -109.5 376.5t-304.5 137.5q-192 0 -302 -138t-110 -376zM416 1817h223 l195 -332h-172z" />
<glyph unicode="&#xd3;" horiz-adv-x="1456" d="M94 696q0 322 172 516.5t461 194.5q295 0 465 -193.5t170 -517.5t-171 -518t-462 -194q-288 0 -461.5 194.5t-173.5 517.5zM315 696q0 -238 112.5 -377t301.5 -139q194 0 303 138t109 378q0 239 -109.5 376.5t-304.5 137.5q-192 0 -302 -138t-110 -376zM655 1485l195 332 h223l-246 -332h-172z" />
<glyph unicode="&#xd4;" horiz-adv-x="1456" d="M94 696q0 322 172 516.5t461 194.5q295 0 465 -193.5t170 -517.5t-171 -518t-462 -194q-288 0 -461.5 194.5t-173.5 517.5zM315 696q0 -238 112.5 -377t301.5 -139q194 0 303 138t109 378q0 239 -109.5 376.5t-304.5 137.5q-192 0 -302 -138t-110 -376zM373 1485l276 332 h185l276 -332h-199l-172 209l-168 -209h-198z" />
<glyph unicode="&#xd5;" horiz-adv-x="1456" d="M94 696q0 322 172 516.5t461 194.5q295 0 465 -193.5t170 -517.5t-171 -518t-462 -194q-288 0 -461.5 194.5t-173.5 517.5zM315 696q0 -238 112.5 -377t301.5 -139q194 0 303 138t109 378q0 239 -109.5 376.5t-304.5 137.5q-192 0 -302 -138t-110 -376zM369 1624 q30 64 88 108t127 44q51 0 102 -21t95 -42t79 -21q76 0 119 88l115 -86q-34 -72 -93 -112t-131 -40q-46 0 -95 21t-91 42t-72 21q-48 0 -78.5 -22t-64.5 -72z" />
<glyph unicode="&#xd6;" horiz-adv-x="1456" d="M94 696q0 322 172 516.5t461 194.5q295 0 465 -193.5t170 -517.5t-171 -518t-462 -194q-288 0 -461.5 194.5t-173.5 517.5zM315 696q0 -238 112.5 -377t301.5 -139q194 0 303 138t109 378q0 239 -109.5 376.5t-304.5 137.5q-192 0 -302 -138t-110 -376zM389 1653 q0 53 35 88t90 35q52 0 87.5 -35t35.5 -88t-35.5 -88t-87.5 -35q-55 0 -90 35t-35 88zM842 1653q0 53 35 88t88 35q54 0 89.5 -35t35.5 -88t-35.5 -88t-89.5 -35q-53 0 -88 35t-35 88z" />
<glyph unicode="&#xd7;" horiz-adv-x="1030" d="M111 969l129 129l272 -271l272 271l131 -131l-272 -271l268 -266l-129 -129l-268 266l-266 -264l-131 129l266 266z" />
<glyph unicode="&#xd8;" horiz-adv-x="1404" d="M82 -16l158 213q-158 194 -158 499q0 322 172 516.5t463 194.5q201 0 352 -96l72 94h213l-156 -211q154 -193 154 -498q0 -324 -171 -518t-462 -194q-201 0 -350 98l-74 -98h-213zM299 696q0 -191 74 -323l577 778q-92 68 -233 68q-195 0 -306.5 -140.5t-111.5 -382.5z M487 242q98 -70 232 -70q197 0 306.5 139.5t109.5 384.5q0 191 -70 322z" />
<glyph unicode="&#xd9;" horiz-adv-x="1335" d="M145 512v868h211v-866q0 -177 85 -257.5t225 -80.5q313 0 313 348v856h211v-852q0 -268 -139.5 -407t-384.5 -139q-242 0 -381.5 136.5t-139.5 393.5zM344 1817h223l195 -332h-172z" />
<glyph unicode="&#xda;" horiz-adv-x="1335" d="M145 512v868h211v-866q0 -177 85 -257.5t225 -80.5q313 0 313 348v856h211v-852q0 -268 -139.5 -407t-384.5 -139q-242 0 -381.5 136.5t-139.5 393.5zM608 1485l195 332h223l-246 -332h-172z" />
<glyph unicode="&#xdb;" horiz-adv-x="1335" d="M145 512v868h211v-866q0 -177 85 -257.5t225 -80.5q313 0 313 348v856h211v-852q0 -268 -139.5 -407t-384.5 -139q-242 0 -381.5 136.5t-139.5 393.5zM301 1485l277 332h184l276 -332h-198l-172 209l-168 -209h-199z" />
<glyph unicode="&#xdc;" horiz-adv-x="1335" d="M145 512v868h211v-866q0 -177 85 -257.5t225 -80.5q313 0 313 348v856h211v-852q0 -268 -139.5 -407t-384.5 -139q-242 0 -381.5 136.5t-139.5 393.5zM322 1653q0 53 34.5 88t89.5 35q52 0 87.5 -35t35.5 -88t-35.5 -88t-87.5 -35q-55 0 -89.5 35t-34.5 88zM774 1653 q0 53 35 88t88 35q54 0 89.5 -35t35.5 -88t-35.5 -88t-89.5 -35q-53 0 -88 35t-35 88z" />
<glyph unicode="&#xdd;" horiz-adv-x="1245" d="M47 1380h242l98 -202q94 -191 151.5 -314t68.5 -150l11 -28q19 63 238 492l100 202h242l-473 -866v-514h-211v514zM569 1485l195 332h223l-246 -332h-172z" />
<glyph unicode="&#xde;" horiz-adv-x="1114" d="M150 0v1380h210v-245h175q243 0 379.5 -124.5t136.5 -324.5q0 -198 -137.5 -319t-366.5 -121h-187v-246h-210zM360 420h183q147 0 221 73t74 189q0 125 -75.5 202t-232.5 77h-170v-541z" />
<glyph unicode="&#xdf;" horiz-adv-x="1142" d="M145 0v995q0 204 111 311t303 107q173 0 280 -95.5t107 -230.5q0 -56 -15 -103.5t-36 -79t-42.5 -59t-36.5 -55t-15 -53.5q0 -27 21 -55t53 -51.5t69 -57t69 -69t53 -91t21 -120.5q0 -137 -94 -223t-258 -86q-124 0 -194 32v185q87 -49 184 -49q77 0 122.5 37t45.5 98 q0 41 -22.5 78.5t-56 64.5t-73 59t-73 62t-56 74.5t-22.5 95.5q0 44 15.5 84t38 70.5t44.5 60t37.5 66t15.5 75.5q0 70 -48.5 112t-131.5 42q-217 0 -217 -227v-1004h-199z" />
<glyph unicode="&#xe0;" horiz-adv-x="1021" d="M88 293q0 149 112.5 232t315.5 83h172v60q0 105 -51 160t-170 55q-79 0 -159.5 -25.5t-141.5 -66.5v194q53 30 140 50t179 20q209 0 308.5 -99.5t99.5 -296.5v-659h-199v123q-33 -53 -101 -92t-179 -39q-148 0 -237 85.5t-89 215.5zM199 1475h223l194 -332h-172zM301 303 q0 -71 44.5 -112t131.5 -41q98 0 154.5 54t56.5 142v117h-156q-115 0 -173 -45t-58 -115z" />
<glyph unicode="&#xe1;" horiz-adv-x="1021" d="M88 293q0 149 112.5 232t315.5 83h172v60q0 105 -51 160t-170 55q-79 0 -159.5 -25.5t-141.5 -66.5v194q53 30 140 50t179 20q209 0 308.5 -99.5t99.5 -296.5v-659h-199v123q-33 -53 -101 -92t-179 -39q-148 0 -237 85.5t-89 215.5zM301 303q0 -71 44.5 -112t131.5 -41 q98 0 154.5 54t56.5 142v117h-156q-115 0 -173 -45t-58 -115zM440 1143l195 332h223l-246 -332h-172z" />
<glyph unicode="&#xe2;" horiz-adv-x="1021" d="M88 293q0 149 112.5 232t315.5 83h172v60q0 105 -51 160t-170 55q-79 0 -159.5 -25.5t-141.5 -66.5v194q53 30 140 50t179 20q209 0 308.5 -99.5t99.5 -296.5v-659h-199v123q-33 -53 -101 -92t-179 -39q-148 0 -237 85.5t-89 215.5zM154 1143l276 332h184l277 -332h-199 l-172 209l-168 -209h-198zM301 303q0 -71 44.5 -112t131.5 -41q98 0 154.5 54t56.5 142v117h-156q-115 0 -173 -45t-58 -115z" />
<glyph unicode="&#xe3;" horiz-adv-x="1021" d="M88 293q0 149 112.5 232t315.5 83h172v60q0 105 -51 160t-170 55q-79 0 -159.5 -25.5t-141.5 -66.5v194q53 30 140 50t179 20q209 0 308.5 -99.5t99.5 -296.5v-659h-199v123q-33 -53 -101 -92t-179 -39q-148 0 -237 85.5t-89 215.5zM154 1280q30 64 88 108t127 44 q51 0 102 -21t95 -42t79 -21q76 0 119 88l115 -86q-34 -72 -93 -112t-131 -40q-46 0 -95 21t-91 42t-72 21q-48 0 -78.5 -22t-64.5 -72zM301 303q0 -71 44.5 -112t131.5 -41q98 0 154.5 54t56.5 142v117h-156q-115 0 -173 -45t-58 -115z" />
<glyph unicode="&#xe4;" horiz-adv-x="1021" d="M88 293q0 149 112.5 232t315.5 83h172v60q0 105 -51 160t-170 55q-79 0 -159.5 -25.5t-141.5 -66.5v194q53 30 140 50t179 20q209 0 308.5 -99.5t99.5 -296.5v-659h-199v123q-33 -53 -101 -92t-179 -39q-148 0 -237 85.5t-89 215.5zM174 1307q0 53 35 88t90 35 q53 0 88 -35t35 -88t-35 -88t-88 -35q-55 0 -90 35t-35 88zM301 303q0 -71 44.5 -112t131.5 -41q98 0 154.5 54t56.5 142v117h-156q-115 0 -173 -45t-58 -115zM627 1307q0 53 35.5 88t87.5 35q54 0 89 -35t35 -88t-35 -88t-89 -35q-52 0 -87.5 35t-35.5 88z" />
<glyph unicode="&#xe5;" horiz-adv-x="1021" d="M88 293q0 149 112.5 232t315.5 83h172v60q0 105 -51 160t-170 55q-79 0 -159.5 -25.5t-141.5 -66.5v194q53 30 140 50t179 20q209 0 308.5 -99.5t99.5 -296.5v-659h-199v123q-33 -53 -101 -92t-179 -39q-148 0 -237 85.5t-89 215.5zM291 1356q0 98 68 167.5t165 69.5 q98 0 168 -69.5t70 -167.5q0 -97 -70 -165.5t-168 -68.5q-97 0 -165 68.5t-68 165.5zM301 303q0 -71 44.5 -112t131.5 -41q98 0 154.5 54t56.5 142v117h-156q-115 0 -173 -45t-58 -115zM416 1360q0 -45 31.5 -79t76.5 -34q46 0 78.5 34t32.5 79t-32 77.5t-79 32.5 q-45 0 -76.5 -32.5t-31.5 -77.5z" />
<glyph unicode="&#xe6;" horiz-adv-x="1671" d="M98 293q0 149 114 233t318 84h168v58q0 105 -51 160t-170 55q-79 0 -159.5 -25t-141.5 -65v190q53 32 135.5 52t175.5 20q126 0 210 -45.5t118 -128.5q55 81 146 125.5t202 44.5q203 0 314.5 -125.5t111.5 -362.5q0 -57 -12 -127h-678q23 -134 116 -206t228 -72 q164 0 275 78v-181q-55 -31 -136 -48t-157 -17q-129 0 -242.5 54.5t-173.5 152.5q-38 -90 -132 -148.5t-235 -58.5q-158 0 -251 82.5t-93 220.5zM309 301q0 -69 45.5 -109t132.5 -40q91 0 151 56.5t60 149.5v103h-137q-122 0 -187 -41.5t-65 -118.5zM895 594h500v37 q-3 121 -64 187.5t-166 66.5q-102 0 -177 -74t-93 -217z" />
<glyph unicode="&#xe7;" horiz-adv-x="964" d="M84 516q0 107 36.5 204t104 172.5t171.5 120t231 44.5q134 0 247 -58v-184q-49 31 -111 47.5t-116 16.5q-162 0 -259 -102.5t-97 -262.5q3 -158 95.5 -259t258.5 -101q124 0 229 67v-180q-46 -29 -116.5 -45t-139.5 -16q-162 0 -285 73t-186 193.5t-63 269.5zM387 -387 q83 4 125.5 40.5t42.5 100.5q0 66 -51 142h172q37 -52 37 -148q0 -115 -84 -193t-242 -81v139z" />
<glyph unicode="&#xe8;" horiz-adv-x="1075" d="M84 516q0 249 131 392t334 143q199 0 315.5 -124t116.5 -358q0 -63 -12 -133h-682q21 -134 115 -206t237 -72q76 0 150 21t126 57v-181q-54 -31 -140 -48t-163 -17q-242 0 -385 145.5t-143 380.5zM246 1475h223l195 -332h-172zM285 594h501v37q-3 117 -63 185.5 t-170 68.5q-103 0 -176.5 -75t-91.5 -216z" />
<glyph unicode="&#xe9;" horiz-adv-x="1075" d="M84 516q0 249 131 392t334 143q199 0 315.5 -124t116.5 -358q0 -63 -12 -133h-682q21 -134 115 -206t237 -72q76 0 150 21t126 57v-181q-54 -31 -140 -48t-163 -17q-242 0 -385 145.5t-143 380.5zM285 594h501v37q-3 117 -63 185.5t-170 68.5q-103 0 -176.5 -75 t-91.5 -216zM500 1143l194 332h224l-246 -332h-172z" />
<glyph unicode="&#xea;" horiz-adv-x="1075" d="M84 516q0 249 131 392t334 143q199 0 315.5 -124t116.5 -358q0 -63 -12 -133h-682q21 -134 115 -206t237 -72q76 0 150 21t126 57v-181q-54 -31 -140 -48t-163 -17q-242 0 -385 145.5t-143 380.5zM201 1143l276 332h185l276 -332h-199l-172 209l-168 -209h-198zM285 594 h501v37q-3 117 -63 185.5t-170 68.5q-103 0 -176.5 -75t-91.5 -216z" />
<glyph unicode="&#xeb;" horiz-adv-x="1075" d="M84 516q0 249 131 392t334 143q199 0 315.5 -124t116.5 -358q0 -63 -12 -133h-682q21 -134 115 -206t237 -72q76 0 150 21t126 57v-181q-54 -31 -140 -48t-163 -17q-242 0 -385 145.5t-143 380.5zM227 1311q0 53 35 88t90 35q52 0 87.5 -35t35.5 -88t-35.5 -88t-87.5 -35 q-55 0 -90 35t-35 88zM285 594h501v37q-3 117 -63 185.5t-170 68.5q-103 0 -176.5 -75t-91.5 -216zM680 1311q0 53 35 88t88 35q54 0 89.5 -35t35.5 -88t-35.5 -88t-89.5 -35q-53 0 -88 35t-35 88z" />
<glyph unicode="&#xec;" horiz-adv-x="501" d="M-94 1475h223l195 -332h-172zM150 0v1038h202v-1038h-202z" />
<glyph unicode="&#xed;" horiz-adv-x="501" d="M150 0v1038h202v-1038h-202zM180 1143l195 332h223l-246 -332h-172z" />
<glyph unicode="&#xee;" horiz-adv-x="501" d="M-115 1143l277 332h184l277 -332h-199l-172 209l-168 -209h-199zM150 0v1038h202v-1038h-202z" />
<glyph unicode="&#xef;" horiz-adv-x="501" d="M-98 1313q0 53 35 88t90 35q53 0 88 -35t35 -88t-35 -88t-88 -35q-55 0 -90 35t-35 88zM150 0v1038h202v-1038h-202zM354 1313q0 53 35 88t88 35q54 0 89.5 -35t35.5 -88t-35.5 -88t-89.5 -35q-53 0 -88 35t-35 88z" />
<glyph unicode="&#xf0;" horiz-adv-x="1081" d="M76 416q0 128 56.5 224t148 143.5t202.5 47.5q179 0 299 -126q-35 205 -166 378l-288 -145v137l204 103q-116 119 -266 202h291q79 -53 141 -118l246 122v-137l-164 -82q97 -127 153 -282t56 -320q0 -277 -123 -429t-342 -152q-136 0 -239.5 60.5t-156 158.5t-52.5 215z M285 406q0 -111 66 -176.5t173 -65.5q109 0 183 82.5t84 265.5q-111 141 -277 141q-101 0 -165 -65t-64 -182z" />
<glyph unicode="&#xf1;" horiz-adv-x="1128" d="M141 0v1038h201v-178q44 94 127 143.5t197 49.5q154 0 243.5 -94t89.5 -257v-702h-200v655q0 109 -54 166.5t-145 57.5q-107 0 -182.5 -83.5t-75.5 -232.5v-563h-201zM217 1280q30 64 88 108t127 44q51 0 102.5 -21t95.5 -42t79 -21q75 0 118 88l115 -86 q-34 -72 -92.5 -112t-130.5 -40q-46 0 -95 21t-91 42t-72 21q-48 0 -79.5 -22t-64.5 -72z" />
<glyph unicode="&#xf2;" d="M84 510q0 153 59 275.5t172 195t260 72.5q159 0 273 -72.5t168.5 -192t54.5 -270.5t-56.5 -271.5t-170.5 -192.5t-269 -72q-154 0 -267 71.5t-168.5 189.5t-55.5 267zM256 1475h223l195 -332h-172zM293 516q0 -154 76 -259t206 -105q139 0 212 102.5t73 259.5 q0 77 -16 141.5t-49 116.5t-89.5 81.5t-132.5 29.5q-133 0 -206.5 -106t-73.5 -261z" />
<glyph unicode="&#xf3;" d="M84 510q0 153 59 275.5t172 195t260 72.5q159 0 273 -72.5t168.5 -192t54.5 -270.5t-56.5 -271.5t-170.5 -192.5t-269 -72q-154 0 -267 71.5t-168.5 189.5t-55.5 267zM293 516q0 -154 76 -259t206 -105q139 0 212 102.5t73 259.5q0 77 -16 141.5t-49 116.5t-89.5 81.5 t-132.5 29.5q-133 0 -206.5 -106t-73.5 -261zM516 1143l195 332h223l-246 -332h-172z" />
<glyph unicode="&#xf4;" d="M84 510q0 153 59 275.5t172 195t260 72.5q159 0 273 -72.5t168.5 -192t54.5 -270.5t-56.5 -271.5t-170.5 -192.5t-269 -72q-154 0 -267 71.5t-168.5 189.5t-55.5 267zM215 1141l277 332h184l276 -332h-198l-172 209l-168 -209h-199zM293 516q0 -154 76 -259t206 -105 q139 0 212 102.5t73 259.5q0 77 -16 141.5t-49 116.5t-89.5 81.5t-132.5 29.5q-133 0 -206.5 -106t-73.5 -261z" />
<glyph unicode="&#xf5;" d="M84 510q0 153 59 275.5t172 195t260 72.5q159 0 273 -72.5t168.5 -192t54.5 -270.5t-56.5 -271.5t-170.5 -192.5t-269 -72q-154 0 -267 71.5t-168.5 189.5t-55.5 267zM221 1280q30 64 88 108t127 44q51 0 102.5 -21t95.5 -42t79 -21q75 0 118 88l115 -86 q-34 -72 -92.5 -112t-130.5 -40q-46 0 -95 21t-91 42t-72 21q-48 0 -78.5 -22t-64.5 -72zM293 516q0 -154 76 -259t206 -105q139 0 212 102.5t73 259.5q0 77 -16 141.5t-49 116.5t-89.5 81.5t-132.5 29.5q-133 0 -206.5 -106t-73.5 -261z" />
<glyph unicode="&#xf6;" d="M84 510q0 153 59 275.5t172 195t260 72.5q159 0 273 -72.5t168.5 -192t54.5 -270.5t-56.5 -271.5t-170.5 -192.5t-269 -72q-154 0 -267 71.5t-168.5 189.5t-55.5 267zM246 1309q0 53 35 88t90 35q53 0 88 -35t35 -88t-35 -88t-88 -35q-55 0 -90 35t-35 88zM293 516 q0 -154 76 -259t206 -105q139 0 212 102.5t73 259.5q0 77 -16 141.5t-49 116.5t-89.5 81.5t-132.5 29.5q-133 0 -206.5 -106t-73.5 -261zM698 1309q0 53 35 88t88 35q54 0 89.5 -35t35.5 -88t-35.5 -88t-89.5 -35q-53 0 -88 35t-35 88z" />
<glyph unicode="&#xf7;" d="M109 606v180h935v-180h-935zM453 332q0 50 35.5 86.5t84.5 36.5t85 -36.5t36 -86.5t-36 -85.5t-85 -35.5t-84.5 35.5t-35.5 85.5zM453 1061q0 50 35.5 85.5t84.5 35.5t85 -36t36 -85q0 -50 -36 -86.5t-85 -36.5t-84.5 36.5t-35.5 86.5z" />
<glyph unicode="&#xf8;" horiz-adv-x="1153" d="M102 -18l121 161q-121 145 -121 367q0 233 136 388t356 155q149 0 258 -64l47 64h193l-121 -162q121 -145 121 -373q0 -151 -57 -271.5t-171.5 -192.5t-269.5 -72q-146 0 -254 63l-47 -63h-191zM293 516q0 -123 47 -215l414 557q-65 43 -160 43q-97 0 -166.5 -54 t-102 -139.5t-32.5 -191.5zM440 180q65 -47 156 -47q148 0 225.5 108t77.5 273q0 136 -43 223z" />
<glyph unicode="&#xf9;" horiz-adv-x="1128" d="M129 330v708h203v-659q0 -107 52.5 -163t143.5 -56q118 0 188 82t70 231v565h201v-1038h-201v178q-82 -190 -323 -190q-155 0 -244.5 91t-89.5 251zM233 1473h224l194 -332h-172z" />
<glyph unicode="&#xfa;" horiz-adv-x="1128" d="M129 330v708h203v-659q0 -107 52.5 -163t143.5 -56q118 0 188 82t70 231v565h201v-1038h-201v178q-82 -190 -323 -190q-155 0 -244.5 91t-89.5 251zM492 1143l194 332h223l-245 -332h-172z" />
<glyph unicode="&#xfb;" horiz-adv-x="1128" d="M129 330v708h203v-659q0 -107 52.5 -163t143.5 -56q118 0 188 82t70 231v565h201v-1038h-201v178q-82 -190 -323 -190q-155 0 -244.5 91t-89.5 251zM195 1143l276 332h184l277 -332h-199l-172 209l-168 -209h-198z" />
<glyph unicode="&#xfc;" horiz-adv-x="1128" d="M129 330v708h203v-659q0 -107 52.5 -163t143.5 -56q118 0 188 82t70 231v565h201v-1038h-201v178q-82 -190 -323 -190q-155 0 -244.5 91t-89.5 251zM213 1309q0 53 35 88t90 35q52 0 87.5 -35t35.5 -88t-35.5 -88t-87.5 -35q-55 0 -90 35t-35 88zM666 1309q0 53 35 88 t87 35q54 0 89.5 -35t35.5 -88t-35.5 -88t-89.5 -35q-52 0 -87 35t-35 88z" />
<glyph unicode="&#xfd;" horiz-adv-x="1032" d="M14 1038h224l129 -338q64 -168 104.5 -277.5t48.5 -134.5l8 -26q19 62 148 438l117 338h213l-375 -1009q-81 -215 -195.5 -307.5t-261.5 -92.5q-51 0 -94 11v172q37 -9 70 -9q198 0 278 220zM457 1143l194 332h223l-245 -332h-172z" />
<glyph unicode="&#xfe;" horiz-adv-x="1187" d="M141 -397v1845h201v-569q108 174 320 174q204 0 323 -148.5t119 -378.5q0 -236 -122.5 -388t-324.5 -152q-207 0 -315 172v-555h-201zM342 522q0 -94 25.5 -166t67.5 -113t89 -61t97 -20q122 0 199 94.5t77 267.5q0 162 -75.5 257.5t-192.5 95.5q-54 0 -102.5 -19 t-91 -58t-68 -111t-25.5 -167z" />
<glyph unicode="&#xff;" horiz-adv-x="1032" d="M14 1038h224l129 -338q64 -168 104.5 -277.5t48.5 -134.5l8 -26q19 62 148 438l117 338h213l-375 -1009q-81 -215 -195.5 -307.5t-261.5 -92.5q-51 0 -94 11v172q37 -9 70 -9q198 0 278 220zM184 1309q0 53 35 88t90 35q53 0 88 -35t35 -88t-35 -88t-88 -35q-55 0 -90 35 t-35 88zM637 1309q0 53 35.5 88t87.5 35q54 0 89.5 -35t35.5 -88t-35.5 -88t-89.5 -35q-52 0 -87.5 35t-35.5 88z" />
<glyph unicode="&#x152;" horiz-adv-x="2023" d="M94 696q0 323 167.5 517t455.5 194q246 0 405 -162v135h787v-176h-586v-426h520v-176h-520v-426h596v-176h-797v147q-160 -163 -403 -163q-287 0 -456 194t-169 518zM315 696q0 -239 108.5 -377.5t295.5 -138.5q193 0 298 137t105 379q0 241 -105.5 377.5t-299.5 136.5 q-191 0 -296.5 -137t-105.5 -377z" />
<glyph unicode="&#x153;" horiz-adv-x="1820" d="M84 510q0 153 56.5 275.5t166.5 195t256 72.5q250 0 377 -187q65 90 162 137.5t207 47.5q203 0 314.5 -125.5t111.5 -362.5q0 -51 -13 -127h-680q23 -133 117.5 -205.5t231.5 -72.5q75 0 148.5 20.5t125.5 57.5v-181q-56 -31 -140 -48t-161 -17q-132 0 -240.5 49.5 t-177.5 140.5q-62 -94 -159 -146t-224 -52q-153 0 -263 71.5t-163 189.5t-53 267zM293 516q0 -156 70.5 -260t199.5 -104q138 0 206.5 101.5t68.5 260.5q0 78 -14 141.5t-44.5 116t-85.5 82t-131 29.5q-132 0 -201 -105t-69 -262zM1040 594h500v45q-4 117 -65.5 181.5 t-163.5 64.5t-177.5 -74t-93.5 -217z" />
<glyph unicode="&#x178;" horiz-adv-x="1245" d="M47 1380h242l98 -202q94 -191 151.5 -314t68.5 -150l11 -28q19 63 238 492l100 202h242l-473 -866v-514h-211v514zM279 1651q0 53 34.5 88t89.5 35q53 0 88 -35t35 -88t-35 -88t-88 -35q-55 0 -89.5 35t-34.5 88zM731 1651q0 53 35.5 88t87.5 35q54 0 89.5 -35t35.5 -88 t-35.5 -88t-89.5 -35q-52 0 -87.5 35t-35.5 88z" />
<glyph unicode="&#x2c6;" horiz-adv-x="909" d="M86 1303l276 331h185l276 -331h-198l-172 208l-168 -208h-199z" />
<glyph unicode="&#x2dc;" horiz-adv-x="909" d="M104 1407q30 64 88 108t127 44q51 0 102.5 -21t95.5 -42t79 -21q76 0 119 88l114 -86q-34 -72 -92.5 -112t-130.5 -40q-46 0 -95 21t-91 42t-72 21q-48 0 -78.5 -22t-64.5 -72z" />
<glyph unicode="&#x2000;" horiz-adv-x="967" />
<glyph unicode="&#x2001;" horiz-adv-x="1935" />
<glyph unicode="&#x2002;" horiz-adv-x="967" />
<glyph unicode="&#x2003;" horiz-adv-x="1935" />
<glyph unicode="&#x2004;" horiz-adv-x="645" />
<glyph unicode="&#x2005;" horiz-adv-x="483" />
<glyph unicode="&#x2006;" horiz-adv-x="322" />
<glyph unicode="&#x2007;" horiz-adv-x="322" />
<glyph unicode="&#x2008;" horiz-adv-x="241" />
<glyph unicode="&#x2009;" horiz-adv-x="387" />
<glyph unicode="&#x200a;" horiz-adv-x="107" />
<glyph unicode="&#x2010;" horiz-adv-x="716" d="M109 461v172h499v-172h-499z" />
<glyph unicode="&#x2011;" horiz-adv-x="716" d="M109 461v172h499v-172h-499z" />
<glyph unicode="&#x2012;" horiz-adv-x="716" d="M109 461v172h499v-172h-499z" />
<glyph unicode="&#x2013;" horiz-adv-x="1114" d="M109 473v160h897v-160h-897z" />
<glyph unicode="&#x2014;" horiz-adv-x="1691" d="M109 477v160h1474v-160h-1474z" />
<glyph unicode="&#x2018;" horiz-adv-x="419" d="M33 942l254 481h166l-183 -481h-237z" />
<glyph unicode="&#x2019;" horiz-adv-x="421" d="M35 942l180 481h240l-256 -481h-164z" />
<glyph unicode="&#x201a;" horiz-adv-x="421" d="M-2 -254l182 479h238l-254 -479h-166z" />
<glyph unicode="&#x201c;" horiz-adv-x="739" d="M33 942l260 481h160l-185 -481h-235zM369 942l241 481h162l-178 -481h-225z" />
<glyph unicode="&#x201d;" horiz-adv-x="739" d="M35 942l176 481h225l-241 -481h-160zM352 942l185 481h235l-258 -481h-162z" />
<glyph unicode="&#x201e;" horiz-adv-x="739" d="M2 -254l178 479h223l-239 -479h-162zM322 -254l184 479h235l-260 -479h-159z" />
<glyph unicode="&#x2022;" horiz-adv-x="905" d="M180 729q0 116 77 194t194 78q115 0 193.5 -78.5t78.5 -193.5t-78 -193.5t-192 -78.5q-118 0 -195.5 78t-77.5 194z" />
<glyph unicode="&#x2026;" horiz-adv-x="1603" d="M88 123q0 58 40 97.5t99 39.5q57 0 97.5 -39.5t40.5 -97.5t-40.5 -98.5t-97.5 -40.5q-59 0 -99 40t-40 99zM664 123q0 58 40 97.5t99 39.5q57 0 97 -39.5t40 -97.5t-40 -98.5t-97 -40.5q-59 0 -99 40t-40 99zM1239 123q0 58 40 97.5t99 39.5q57 0 97.5 -39.5t40.5 -97.5 t-40.5 -98.5t-97.5 -40.5q-58 0 -98.5 40t-40.5 99z" />
<glyph unicode="&#x202f;" horiz-adv-x="387" />
<glyph unicode="&#x2039;" horiz-adv-x="655" d="M57 518l310 332h217l-299 -332l299 -332h-217z" />
<glyph unicode="&#x203a;" horiz-adv-x="651" d="M72 186l299 332l-299 332h217l309 -332l-309 -332h-217z" />
<glyph unicode="&#x205f;" horiz-adv-x="483" />
<glyph unicode="&#x20ac;" horiz-adv-x="1228" d="M98 440v138h181q-5 67 -5 84q0 18 5 100h-181v137h205q59 215 213 335t358 120q166 0 273 -58v-198q-97 63 -244 63q-133 0 -231.5 -67.5t-145.5 -194.5h398v-137h-430q-7 -58 -7 -103q0 -13 5 -81h432v-138h-402q47 -129 145 -198.5t226 -69.5q150 0 254 68v-201 q-107 -55 -277 -55q-209 0 -361 122.5t-208 333.5h-203z" />
<glyph unicode="&#x2122;" horiz-adv-x="1456" d="M8 1253v127h494v-127h-172v-577h-144v577h-178zM567 678l58 702h172l104 -290q25 -68 44 -127.5t25 -84.5l7 -26q27 86 84 238l108 290h174l60 -702h-141l-23 293q-4 68 -5.5 129t-1.5 88l1 26q-19 -79 -80 -245l-106 -279h-136l-98 279q-26 74 -45.5 135t-25.5 86l-7 24 q4 -85 -6 -245l-18 -291h-144z" />
<glyph unicode="&#x25fc;" horiz-adv-x="1044" d="M0 0v1044h1044v-1044h-1044z" />
<glyph unicode="&#xfb03;" horiz-adv-x="1718" d="M61 883v155h166v80q0 163 89.5 255.5t254.5 92.5q75 0 157.5 -20.5t143.5 -50.5q87 71 228 71q163 0 313 -75v-174q-165 77 -295 77q-155 0 -155 -178v-78h534v-1038h-201v883h-333v-883h-201v883h-334v-883h-201v883h-166zM428 1038h334v80q0 74 18 135q-102 41 -190 41 q-162 0 -162 -178v-78z" />
<glyph unicode="&#xfb04;" horiz-adv-x="1630" d="M61 883v155h166v80q0 163 89.5 255.5t254.5 92.5q76 0 158 -21t143 -52q82 73 228 73q182 0 389 -108v-1358h-203v1266q-82 28 -158 28q-78 0 -120.5 -39.5t-42.5 -138.5v-78h217v-155h-217v-883h-201v883h-336v-883h-201v883h-166zM428 1038h336v80q0 74 18 135 q-102 41 -192 41q-162 0 -162 -178v-78z" />
</font>
</defs>
</svg>
